<?xml version="1.0" encoding="utf-8"?>
<!-- Generator: Adobe Illustrator 19.2.0, SVG Export Plug-In . SVG Version: 6.00 Build 0)  -->
<svg version="1.1" id="Layer_1" xmlns="http://www.w3.org/2000/svg" xmlns:xlink="http://www.w3.org/1999/xlink" x="0px" y="0px"
	 viewBox="0 0 960 960" style="enable-background:new 0 0 960 960;" xml:space="preserve">
<style type="text/css">
	.st0{fill:none;stroke:#0B4A70;stroke-width:21.9206;stroke-linecap:round;stroke-linejoin:round;stroke-miterlimit:10;}
	.st1{fill:none;stroke:#EAEAEA;stroke-width:21.9206;stroke-linecap:round;stroke-linejoin:round;stroke-miterlimit:10;}
	.st2{fill:none;stroke:#0B4A70;stroke-width:32.8809;stroke-linecap:round;stroke-miterlimit:10;}
	.st3{fill:#0076AE;}
	.st4{fill:#009DCB;}
	.st5{fill:none;stroke:#0B4A70;stroke-width:40.1878;stroke-linecap:round;stroke-linejoin:round;stroke-miterlimit:10;}
	.st6{fill:none;stroke:#0076AE;stroke-width:21.9206;stroke-linecap:round;stroke-linejoin:round;stroke-miterlimit:10;}
	.st7{fill:#B3E2E5;}
	.st8{fill:#F8DF88;}
	.st9{fill:#FFFFFF;}
</style>
<g id="Layer_1_1_">
	<g>
		<rect x="271" y="446.4" class="st0" width="77.3" height="136"/>
		<rect x="416.1" y="152" class="st1" width="169.7" height="128.6"/>
		<line class="st2" x1="371.7" y1="764.6" x2="371.7" y2="808"/>
		<line class="st2" x1="627.5" y1="764.6" x2="627.5" y2="808"/>
		<path class="st3" d="M631.4,800.9H362.8c-31.8,0-57.6-25.8-57.6-57.6V358.7c0-31.8,25.8-57.6,57.6-57.6h268.6
			c31.8,0,57.6,25.8,57.6,57.6v384.7C689,775.1,663.2,800.9,631.4,800.9z"/>
		<path class="st4" d="M631.4,764.4H362.8c-31.8,0-57.6-25.8-57.6-57.6V322.1c0-31.8,25.8-57.6,57.6-57.6h268.6
			c31.8,0,57.6,25.8,57.6,57.6v384.7C689,738.6,663.2,764.4,631.4,764.4z"/>
		<line class="st5" x1="398.9" y1="152" x2="601.9" y2="152"/>
		<g>
			<line class="st6" x1="397.7" y1="355.2" x2="397.7" y2="671.3"/>
			<line class="st6" x1="463.9" y1="355.2" x2="463.9" y2="671.3"/>
			<line class="st6" x1="530.2" y1="355.2" x2="530.2" y2="671.3"/>
			<line class="st6" x1="596.4" y1="355.2" x2="596.4" y2="671.3"/>
		</g>
		<path class="st7" d="M433.3,241.6c-1.9-1.7-4-3-6.4-3.9v8.1c0.5,0.3,1,0.7,1.5,1.1l0,0c3,2.8,4.3,7.1,3.7,12.3
			c-0.7,5.6-3.5,11.4-8,16.2c-8.9,9.7-21.5,12.6-28.1,6.5c-3-2.8-4.3-7.1-3.7-12.3c0.7-5.6,3.5-11.4,8-16.2c1.5-1.6,3.1-3,4.8-4.2
			v-8.7c-3.7,2-7.2,4.7-10.2,8c-5.5,6-9,13.1-9.9,20.3c-0.9,7.6,1.2,14.1,5.9,18.6c3.6,3.4,8.4,5,13.6,5c8.3,0,17.6-4.2,24.8-11.9
			c5.5-6,9-13.1,9.9-20.3C440.2,252.6,438.1,246,433.3,241.6z"/>
		<g>
			<path class="st8" d="M438.5,301.8l-0.4-9.1c-0.2-4.6-2.7-8.8-6.7-11.2l-23.9-14.4c-4-2.4-8.9-2.7-13.1-0.7l-8.2,3.8
				c-5,2.3-9.2,6.1-12.1,10.9l-41.7,69.1c-2.6,4.4-1.2,10.1,3.2,12.7l44.6,26.9c4.4,2.6,10.1,1.2,12.7-3.2l41.7-69.1
				C437.4,312.8,438.8,307.3,438.5,301.8z M406.5,295.7c-3.7-2.2-4.9-7-2.6-10.7c2.2-3.7,7-4.9,10.7-2.6c3.7,2.2,4.9,7,2.6,10.7
				C415,296.7,410.2,297.9,406.5,295.7z"/>
			
				<rect x="355.9" y="324.7" transform="matrix(0.5162 -0.8565 0.8565 0.5162 -116.4422 489.0625)" class="st9" width="37.6" height="45.7"/>
			
				<rect x="388.4" y="297" transform="matrix(0.5162 -0.8565 0.8565 0.5162 -84.5304 490.0233)" class="st9" width="6.2" height="45.7"/>
			
				<rect x="395.5" y="285.2" transform="matrix(0.5162 -0.8565 0.8565 0.5162 -70.9785 490.3824)" class="st9" width="6.2" height="45.7"/>
		</g>
		<g>
			<path class="st7" d="M414.8,282.5c0.3,2.8,1.8,4.8,3.5,6.3c3.9-2,7.7-4.8,11.1-8.4l0.1-0.1c0,0-0.9-1.4-2.7-2.5
				c-1.8-1.1-3.8-1.4-3.8-1.4C420.5,279,417.7,281.1,414.8,282.5z"/>
		</g>
	</g>
</g>
</svg>
